<mxfile host="app.diagrams.net" modified="2022-01-27T04:11:21.468Z" agent="5.0 (Windows NT 10.0; Win64; x64) AppleWebKit/537.36 (KHTML, like Gecko) Chrome/97.0.4692.99 Safari/537.36" etag="iCXMbAGN_t2oaxM2A3pX" version="16.4.7" type="gitlab">
  <diagram id="9pc_g8Um0M8nncfYqumP" name="Page-1">
    <mxGraphModel dx="782" dy="468" grid="1" gridSize="10" guides="1" tooltips="1" connect="1" arrows="1" fold="1" page="1" pageScale="1" pageWidth="850" pageHeight="1100" math="0" shadow="0">
      <root>
        <mxCell id="0" />
        <mxCell id="1" parent="0" />
        <mxCell id="ac8MEw2Hx-NnHeC2qa__-1" value="" style="rounded=0;whiteSpace=wrap;html=1;" vertex="1" parent="1">
          <mxGeometry x="40" y="560" width="720" height="480" as="geometry" />
        </mxCell>
        <mxCell id="ac8MEw2Hx-NnHeC2qa__-2" value="" style="rounded=0;whiteSpace=wrap;html=1;" vertex="1" parent="1">
          <mxGeometry x="40" y="560" width="720" height="70" as="geometry" />
        </mxCell>
        <mxCell id="ac8MEw2Hx-NnHeC2qa__-3" value="" style="rounded=0;whiteSpace=wrap;html=1;" vertex="1" parent="1">
          <mxGeometry x="40" y="980" width="720" height="60" as="geometry" />
        </mxCell>
        <mxCell id="ac8MEw2Hx-NnHeC2qa__-4" value="&lt;span style=&quot;color: rgb(0, 0, 0); font-family: helvetica; font-size: 16px; font-style: normal; font-weight: 400; letter-spacing: normal; text-align: center; text-indent: 0px; text-transform: none; word-spacing: 0px; background-color: rgb(248, 249, 250); display: inline; float: none;&quot;&gt;Copyright Â© 2021. Joshua &amp;amp; Ethan @ DAAA/2B/03&lt;/span&gt;" style="text;whiteSpace=wrap;html=1;" vertex="1" parent="1">
          <mxGeometry x="205" y="995" width="390" height="30" as="geometry" />
        </mxCell>
        <mxCell id="ac8MEw2Hx-NnHeC2qa__-5" value="Login" style="text;strokeColor=none;fillColor=none;align=left;verticalAlign=middle;spacingLeft=4;spacingRight=4;overflow=hidden;points=[[0,0.5],[1,0.5]];portConstraint=eastwest;rotatable=0;" vertex="1" parent="1">
          <mxGeometry x="670" y="585" width="80" height="30" as="geometry" />
        </mxCell>
        <mxCell id="ac8MEw2Hx-NnHeC2qa__-6" value="About" style="text;strokeColor=none;fillColor=none;align=left;verticalAlign=middle;spacingLeft=4;spacingRight=4;overflow=hidden;points=[[0,0.5],[1,0.5]];portConstraint=eastwest;rotatable=0;" vertex="1" parent="1">
          <mxGeometry x="590" y="585" width="80" height="30" as="geometry" />
        </mxCell>
        <mxCell id="ac8MEw2Hx-NnHeC2qa__-7" value="Ball Recognisers" style="text;strokeColor=none;fillColor=none;align=left;verticalAlign=middle;spacingLeft=4;spacingRight=4;overflow=hidden;points=[[0,0.5],[1,0.5]];portConstraint=eastwest;rotatable=0;" vertex="1" parent="1">
          <mxGeometry x="50" y="580" width="150" height="30" as="geometry" />
        </mxCell>
        <mxCell id="ac8MEw2Hx-NnHeC2qa__-8" value="" style="rounded=0;whiteSpace=wrap;html=1;" vertex="1" parent="1">
          <mxGeometry x="165" y="675" width="470" height="295" as="geometry" />
        </mxCell>
        <mxCell id="ac8MEw2Hx-NnHeC2qa__-9" value="" style="rounded=0;whiteSpace=wrap;html=1;" vertex="1" parent="1">
          <mxGeometry x="190" y="730" width="390" height="30" as="geometry" />
        </mxCell>
        <mxCell id="ac8MEw2Hx-NnHeC2qa__-10" value="Email" style="text;html=1;strokeColor=none;fillColor=none;align=center;verticalAlign=middle;whiteSpace=wrap;rounded=0;" vertex="1" parent="1">
          <mxGeometry x="190" y="700" width="60" height="30" as="geometry" />
        </mxCell>
        <mxCell id="ac8MEw2Hx-NnHeC2qa__-11" value="" style="rounded=0;whiteSpace=wrap;html=1;" vertex="1" parent="1">
          <mxGeometry x="190" y="910" width="390" height="30" as="geometry" />
        </mxCell>
        <mxCell id="ac8MEw2Hx-NnHeC2qa__-12" value="Confirm Password" style="text;html=1;strokeColor=none;fillColor=none;align=center;verticalAlign=middle;whiteSpace=wrap;rounded=0;" vertex="1" parent="1">
          <mxGeometry x="190" y="880" width="140" height="30" as="geometry" />
        </mxCell>
        <mxCell id="ac8MEw2Hx-NnHeC2qa__-13" value="" style="rounded=0;whiteSpace=wrap;html=1;" vertex="1" parent="1">
          <mxGeometry x="190" y="790" width="390" height="30" as="geometry" />
        </mxCell>
        <mxCell id="ac8MEw2Hx-NnHeC2qa__-14" value="User Name" style="text;html=1;strokeColor=none;fillColor=none;align=center;verticalAlign=middle;whiteSpace=wrap;rounded=0;" vertex="1" parent="1">
          <mxGeometry x="190" y="760" width="80" height="30" as="geometry" />
        </mxCell>
        <mxCell id="ac8MEw2Hx-NnHeC2qa__-15" value="" style="rounded=0;whiteSpace=wrap;html=1;" vertex="1" parent="1">
          <mxGeometry x="190" y="850" width="390" height="30" as="geometry" />
        </mxCell>
        <mxCell id="ac8MEw2Hx-NnHeC2qa__-16" value="Password" style="text;html=1;strokeColor=none;fillColor=none;align=center;verticalAlign=middle;whiteSpace=wrap;rounded=0;" vertex="1" parent="1">
          <mxGeometry x="190" y="820" width="60" height="30" as="geometry" />
        </mxCell>
      </root>
    </mxGraphModel>
  </diagram>
</mxfile>
